<svg xmlns="http://www.w3.org/2000/svg" viewBox="0 0 512 512" role="img" aria-label="TechnoMinds 3D logo">
<defs>
<linearGradient id="cubeA" x1="0" y1="0" x2="1" y2="1"><stop offset="0" stop-color="#22d3ee"/><stop offset="0.52" stop-color="#7c3aed"/><stop offset="1" stop-color="#facc15"/></linearGradient>
<linearGradient id="cubeB" x1="0" y1="0" x2="1" y2="1"><stop offset="0" stop-color="#ecfeff"/><stop offset="1" stop-color="#c4b5fd"/></linearGradient>
<filter id="shadow" x="-40%" y="-40%" width="180%" height="180%"><feDropShadow dx="0" dy="26" stdDeviation="20" flood-color="#1e1b4b" flood-opacity=".35"/></filter>
</defs>
<rect width="512" height="512" rx="118" fill="#070a18"/>
<circle cx="92" cy="102" r="64" fill="#22d3ee" opacity=".18"/>
<circle cx="410" cy="382" r="88" fill="#7c3aed" opacity=".20"/>
<path d="M70 396c70-38 119-38 185 0s122 38 187 0" fill="none" stroke="#22d3ee" stroke-width="10" opacity=".24"/>
<g filter="url(#shadow)">
<path d="M256 70 402 154 256 238 110 154Z" fill="url(#cubeB)"/>
<path d="M110 154 256 238v176L110 330Z" fill="#22d3ee"/>
<path d="M402 154 256 238v176l146-84Z" fill="#7c3aed"/>
<path d="M178 160 256 116l78 44-78 45Z" fill="#0f172a" opacity=".94"/>
<path d="M204 161h104M222 184h68" stroke="#67e8f9" stroke-width="15" stroke-linecap="round"/>
<path d="M178 286 222 250M222 322l-44-36M334 286l-44-36M290 322l44-36" stroke="#ffffff" stroke-width="20" stroke-linecap="round" stroke-linejoin="round"/>
<path d="M256 238 256 414" stroke="#ffffff" stroke-opacity=".25" stroke-width="4"/>
</g>
</svg>